<?xml version="1.0" encoding="UTF-8"?>
<!-- Generator: Adobe Illustrator 12.0.1, SVG Export Plug-In . SVG Version: 6.00 Build 51448)  -->
<!DOCTYPE svg PUBLIC "-//W3C//DTD SVG 1.1//EN" "http://www.w3.org/Graphics/SVG/1.1/DTD/svg11.dtd" [
	<!ENTITY ns_svg "http://www.w3.org/2000/svg">
	<!ENTITY ns_xlink "http://www.w3.org/1999/xlink">
]>
<svg version="1.1" id="Calque_1" xmlns="http://www.w3.org/2000/svg" xmlns:xlink="http://www.w3.org/1999/xlink" width="576.08" height="131.173" viewBox="0 0 576.08 131.173" overflow="visible" enable-background="new 0 0 576.08 131.173" xml:space="preserve">
<g>
	<path d="M0,44.029h27.603v39.893c0,8.511,4.176,13.881,13.085,13.881c8.114,0,12.807-6.921,12.807-14.478V44.029h26.927v45.66   c0,9.466-4.295,18.813-12.17,24.302c-7.995,5.528-18.256,6.881-27.762,6.881C19.688,120.872,0,113.553,0,89.689V44.029z"/>
	<path d="M88.218,118.645V44.029h27.165v8.71c6.96-7.239,14.756-11.335,25.018-11.335c16.268,0,28.08,9.387,28.08,26.171v51.069   h-27.205V79.706c0-8.67-2.744-15.87-12.688-15.87c-9.864,0-13.205,8.432-13.205,17.063v37.745H88.218z"/>
	<rect x="176.873" y="44.029" width="27.603" height="74.615"/>
	<path d="M271.295,93.07v22.75c-6.284,3.58-13.642,4.893-20.841,4.893c-21.517,0-39.137-17.103-39.137-38.74   c0-22.432,17.5-40.688,40.171-40.688c7.04,0,13.762,1.551,19.807,5.091v22.591c-4.256-2.506-8.909-4.733-13.96-4.733   c-9.705,0-16.824,7.08-16.824,16.784c0,9.228,6.682,16.268,16.069,16.268C261.829,97.286,266.682,95.377,271.295,93.07z"/>
	<path d="M302.597,87.979c0,7.875,3.421,14.199,12.25,14.199c5.449,0,9.068-2.307,11.495-6.96h25.693   c-2.545,7.835-5.926,14.796-12.966,19.569c-7.279,5.011-16.029,6.722-24.739,6.722c-13.443,0-26.569-5.926-33.171-18.018   c-3.58-6.602-5.807-14.398-5.807-21.955c0-10.977,4.017-23.387,12.21-30.904c7.597-6.96,18.455-9.943,28.637-9.943   c24.858,0,37.586,15.75,37.586,39.416c0,2.625-0.318,5.25-0.676,7.875H302.597z"/>
	<path d="M358.757,118.645V46.535c0-11.057,0.597-23.506,8.91-31.819c6.88-6.881,17.58-8.75,26.926-8.75h7.08v19.608h-4.256   c-10.142,0-11.176,6.245-11.176,15.074v4.375h14.478v20.443h-14.478v53.177H358.757z"/>
	<path d="M478.793,131.173l-2.426-2.347c4.216-5.091,10.302-8.71,16.268-11.455c-3.341-1.392-6.801-2.545-10.46-2.625l-0.955,1.114   c-3.739,4.494-8.472,5.847-14.239,5.847c-4.097,0-8.83-0.397-12.728-1.71l-4.176-1.353l-1.551-1.034v-0.119v-0.08   c0-1.233,5.528-2.108,6.403-2.267l6.443-1.273c5.21-1.074,10.66-1.67,15.989-1.67c6.563,0,13.045,1.313,19.21,3.5   c6.443-2.108,13.165-3.5,19.966-3.5c7.318,0,14.517,0.955,21.557,2.784c0.756,0.199,5.966,1.114,5.966,2.506   c0,2.466-15.949,4.295-18.097,4.295c-5.091,0-11.972-1.71-14.08-6.92c-0.358,0-0.756-0.04-1.154-0.04   c-3.341,0-7.119,1.233-10.182,2.506c5.568,2.585,11.017,6.006,15.313,10.42l0.835,0.875l-2.347,2.267l-1.273-1.074l-2.347-2.108   c-1.909-1.75-11.574-8.551-13.92-8.71c-2.108-0.159-10.063,5.21-11.893,6.603C482.731,127.315,480.742,129.224,478.793,131.173z"/>
	<path d="M452.066,88.974l2.426,2.426c2.864,2.864,14.557,15.671,14.557,19.608c0,0.875-1.551,0.835-2.147,0.835   c-5.409,0-10.262-3.978-12.847-8.472c-2.466-4.256-3.738-9.029-3.738-13.921c0-0.397,0-1.272,0.557-1.272   C451.35,88.178,451.787,88.695,452.066,88.974z"/>
	<path d="M429.514,100.389c0.08-0.478,0.636-0.637,1.034-0.637c3.858,0,29.79,9.546,29.79,12.37c0,2.068-6.96,1.75-7.955,1.75   c-5.688,0-10.938-2.545-15.392-5.966C436.077,107.19,429.355,101.781,429.514,100.389z"/>
	<path d="M440.929,86.587c0-1.272,0.795-12.17,2.347-12.17s4.455,12.29,4.813,13.722c1.193,4.972,1.989,9.824,1.989,14.955   c0,0.438-0.08,1.272-0.676,1.272c-1.989,0-5.608-6.324-6.364-7.795C441.446,93.508,440.929,90.007,440.929,86.587z"/>
	<path d="M420.525,79.348c0-0.278,0.08-0.636,0.397-0.636c3.779,0,23.467,18.972,23.467,22.949c0,0.478-0.279,0.636-0.716,0.636   c-5.727,0-12.886-6.165-16.387-10.182C425.338,89.849,420.525,82.53,420.525,79.348z"/>
	<path d="M439.696,83.763l-1.154,4.494c-0.119,0.438-0.397,1.631-0.994,1.631c-2.267,0-3.381-10.182-3.381-12.131   c0-3.5,0.955-7.08,2.228-10.301c0.358-0.875,2.506-6.762,3.858-6.762c1.313,0,1.153,2.784,1.153,3.54   C441.406,70.678,441.287,77.519,439.696,83.763z"/>
	<path d="M422.991,62.444l3.46,5.529c2.108,3.42,7.199,12.926,7.199,17.063c0,0.318-0.119,0.796-0.517,0.796   c-0.915,0-1.75-0.597-2.426-1.193l-3.023-2.705c-5.409-4.853-8.71-14.716-8.71-21.915c0-0.438,0.159-1.273,0.716-1.273   C421.082,58.746,422.395,61.49,422.991,62.444z"/>
	<path d="M440.293,48.723c0.278,0,0.318,0.239,0.318,0.478c0,3.54-6.443,24.739-9.267,24.739c-1.353,0-1.233-3.818-1.233-4.614   c0-6.125,2.267-11.375,5.886-16.188C436.554,52.422,439.139,48.723,440.293,48.723z"/>
	<path d="M421.52,48.285c0-1.153,0.478-9.188,1.71-9.188s3.023,7.438,3.261,8.392c1.551,5.727,2.625,11.932,2.625,17.898   c0,0.636,0.159,2.903-0.955,2.903c-1.313,0-3.778-5.449-4.216-6.642C422.315,57.473,421.52,52.779,421.52,48.285z"/>
	<path d="M433.213,55.246l-1.591,1.71c-0.318,0.318-0.835,0.915-1.352,0.915s-0.517-0.636-0.517-0.994   c0-5.051,2.267-9.585,5.409-13.404c1.272-1.551,6.284-7.12,8.353-7.12c0.278,0,0.438,0.159,0.438,0.398   C443.952,40.887,436.196,51.984,433.213,55.246z"/>
	<path d="M430.35,24.342c1.63,0.079,1.67,10.897,1.67,11.932c0,1.392-0.915,15.193-2.824,15.193c-2.188,0-2.784-11.097-2.784-12.568   c0-3.261,0.517-6.403,1.512-9.506C428.162,28.677,429.196,24.262,430.35,24.342z"/>
	<path d="M444.867,24.62l1.313-0.875c0.12-0.04,0.239-0.159,0.358-0.159c0.278,0.04,0.398,0.397,0.398,0.636   c0,2.784-4.892,9.983-6.483,12.131c-0.915,1.193-5.25,6.603-6.96,6.603c-0.398,0-0.676-0.358-0.676-0.716   C432.815,35.995,439.935,27.881,444.867,24.62z"/>
	<path d="M445.105,15.989l-1.193,3.341c-1.591,4.534-4.495,9.387-7.835,12.847l-1.074,1.114c-0.278,0.318-0.636,0.716-1.074,0.716   c-0.676,0-0.796-0.875-0.796-1.392c0-4.614,2.665-9.188,5.568-12.608c0.915-1.114,4.733-5.728,6.284-5.728   c0.279,0,0.318,0.438,0.318,0.636C445.304,15.273,445.225,15.631,445.105,15.989z"/>
	<path d="M525.885,111.962c-0.597,0-1.193-0.238-1.193-0.915c0-3.103,16.466-23.029,18.694-23.029c0.477,0,0.517,0.676,0.517,0.994   C543.903,99.116,537.261,111.962,525.885,111.962z"/>
	<path d="M535.073,110.372l3.579-1.869c4.455-2.307,20.006-8.671,25.058-8.671c0.278,0,0.795,0.12,0.795,0.478   c0,1.75-8.631,8.233-9.983,9.108c-4.335,2.864-9.307,4.614-14.518,4.614c-1.034,0-6.801,0.04-6.801-1.869   C533.204,111.287,534.397,110.69,535.073,110.372z"/>
	<path d="M546.647,102.417l-1.591,1.511c-0.239,0.239-0.557,0.557-0.915,0.597c-0.637,0.04-0.517-1.313-0.517-1.631v-0.597   c0-6.92,2.147-13.96,4.295-20.483c0.199-0.676,2.188-7.279,3.341-7.279c0.756,0,0.955,1.989,1.034,2.506l0.676,4.017   c0.239,1.511,0.318,3.063,0.318,4.614C553.289,91.917,551.181,98.002,546.647,102.417z"/>
	<path d="M572.182,79.587l1.114-0.517c0.119-0.04,0.278-0.159,0.477-0.159c0.239,0,0.438,0.278,0.438,0.517   c0,0.199-0.079,0.398-0.159,0.597l-1.273,2.864c-2.585,5.767-7.557,12.012-13.006,15.392c-1.909,1.153-7.318,4.176-9.585,4.176   c-0.438,0-0.716-0.238-0.716-0.676c0-2.347,7.636-9.824,9.347-11.535C562.159,86.865,567.846,81.695,572.182,79.587z"/>
	<path d="M553.647,64.911l0.159-2.665c0.04-0.318,0.159-1.591,0.716-1.551c0.438,0.04,0.755,0.676,0.954,0.995l1.671,3.022   c2.147,3.938,3.222,8.671,3.222,13.165c0,1.392-1.591,12.33-3.5,12.33c-2.347,0-3.421-17.938-3.421-19.29   C553.448,68.928,553.528,66.899,553.647,64.911z"/>
	<path d="M564.505,71.075l-0.318,1.79c-0.079,0.358-0.159,0.994-0.636,0.994c-2.188,0-7.478-16.665-8.074-19.131   c-0.04-0.119-1.75-5.887-0.397-5.887c2.068,0,6.483,7.955,7.278,9.785c1.392,3.063,2.387,6.324,2.387,9.744   C564.744,69.286,564.665,70.2,564.505,71.075z"/>
	<path d="M573.653,42.518l0.239,3.54c0.08,0.637,0.08,1.233,0.08,1.83c0,3.897-0.795,8.352-2.028,12.051   c-0.438,1.193-3.66,8.432-5.41,8.432c-0.676,0-0.755-1.233-0.755-1.67c0-6.642,1.591-12.847,3.5-19.131   c0.239-0.756,2.228-7.995,3.261-7.995C573.415,39.575,573.614,42.001,573.653,42.518z"/>
	<path d="M563.392,84.757l-1.869,1.074c-0.199,0.119-0.438,0.238-0.676,0.238c-0.278,0-0.318-0.438-0.318-0.636   c0-3.699,12.528-26.768,15.273-26.768c0.278,0,0.278,0.478,0.278,0.676c0,4.455-1.273,9.108-2.903,13.245   C571.466,76.962,567.488,82.411,563.392,84.757z"/>
	<path d="M565.301,55.604v1.352c0,0.358,0,0.875-0.438,0.875c-0.636,0-1.153-0.835-1.511-1.233l-2.665-3.182   c-2.227-2.665-9.108-12.688-9.108-16.307c0-0.239,0.119-0.557,0.397-0.557c0.557,0,1.114,0.398,1.512,0.716l2.665,2.068   C560.687,42.836,565.42,49.638,565.301,55.604z"/>
	<path d="M549.71,26.967l-0.478-1.591c-0.08-0.278-0.199-0.596-0.199-0.875c0-0.199,0.159-0.318,0.358-0.318   c2.625,0,8.193,6.483,9.705,8.631c1.67,2.426,3.62,5.727,3.62,8.75c0,0.358,0.08,1.631-0.517,1.631   C558.778,43.194,550.625,30.108,549.71,26.967z"/>
	<path d="M552.215,15.035L555,17.58c3.699,3.381,7.835,9.068,7.835,14.358c0,0.517,0.159,2.346-0.597,2.346   c-3.023,0-8.79-11.614-9.745-13.96c-0.04-0.08-2.346-5.926-1.193-5.807C551.659,14.518,551.977,14.796,552.215,15.035z"/>
	<path d="M567.369,49.717l-0.676,1.472c-0.119,0.239-0.239,0.517-0.557,0.517c-1.551,0-2.426-11.733-2.426-13.165   c0-1.272,0.955-14.04,2.028-14.04c0.517,0,0.915,1.71,1.034,2.068l1.153,3.222c1.114,3.063,1.392,6.881,1.392,10.142   C569.318,43.234,568.682,46.694,567.369,49.717z"/>
	<path d="M444.31,55.365c0-15.591,6.324-31.143,18.097-41.523C472.032,5.29,484.879,0,497.805,0   c29.433,0,52.859,24.421,52.859,53.615c0,29.592-24.262,54.529-53.973,54.529C467.776,108.144,444.31,84.082,444.31,55.365z"/>
	<path d="M190.634,5.051c8.671,0,15.83,7.279,15.83,15.91s-7.12,15.989-15.83,15.989c-8.67,0-15.83-7.318-15.83-15.989   C174.805,12.33,181.964,5.051,190.634,5.051z"/>
	<path fill="#FFFFFF" d="M302.995,71.99h25.018c-0.398-7.279-3.659-13.364-11.773-13.364   C307.608,58.626,304.108,64.155,302.995,71.99z"/>
	<path fill="#FFFFFF" d="M512.323,6.881c0.835-0.795,1.67-1.591,2.545-2.386l-1.631-0.438c-3.182-0.875-6.284-1.551-9.585-1.87   l0.955,0.517l1.949,0.875C508.584,4.455,510.453,5.728,512.323,6.881z"/>
	<path fill="#FFFFFF" d="M499.396,23.308c3.739-0.279,7.318-0.716,10.898-1.87c-1.193-2.784-2.505-5.449-4.255-7.955   c-2.148,0.517-4.256,0.875-6.483,0.955L499.396,23.308z"/>
	<path fill="#FFFFFF" d="M499.356,35.956c4.017-0.04,7.915-0.915,11.932-1.074c1.034-0.08,3.102-0.238,3.102-1.67   c0-0.278-0.079-0.517-0.119-0.755l-0.557-2.267c-0.517-2.268-1.432-4.375-2.347-6.483c-3.938,1.193-7.955,1.67-12.052,1.989   L499.356,35.956z"/>
	<path fill="#FFFFFF" d="M512.481,20.881c2.943-0.955,5.529-2.228,8.114-3.898c-2.426-2.705-5.012-5.29-8.114-7.199   c-1.352,1.114-2.784,1.949-4.335,2.665l0.835,1.472l1.631,2.784C511.368,18.018,511.925,19.449,512.481,20.881z"/>
	<path fill="#FFFFFF" d="M522.704,15.91c1.909-1.233,3.659-2.625,5.29-4.256c-3.102-2.824-7.119-4.733-11.057-6.205   c-0.835,0.994-1.79,1.83-2.705,2.705C517.414,10.222,520.237,13.085,522.704,15.91z"/>
	<path fill="#FFFFFF" d="M524.254,17.779c2.705,3.142,5.131,6.603,7.04,10.301c2.705-1.551,5.37-3.261,7.716-5.33   c-2.466-3.54-5.489-7.04-9.029-9.545c-1.114,1.074-2.307,2.028-3.58,2.983L524.254,17.779z"/>
	<path fill="#FFFFFF" d="M479.43,5.21c-19.688,7.676-33.648,28.16-33.648,49.24c0,28.398,22.711,51.865,51.268,51.865   c29.95,0,52.183-24.859,52.183-54.092c0-9.903-3.5-19.29-8.71-27.563l-2.108,1.511c-1.989,1.392-4.017,2.705-6.165,3.858   c0.438,0.915,0.915,1.949,0.915,2.983c0,0.397-0.12,1.272-0.676,1.272c-1.074,0-2.068-2.307-2.426-3.102   c-1.472,0.477-3.063,1.273-4.653,1.273c-0.358,0-1.074-0.279-1.074-0.756c0-1.273,3.739-2.387,4.693-2.824   c-1.83-3.659-3.898-6.92-6.722-9.903c-2.824,1.591-5.688,2.983-8.75,4.097c0.636,1.551,1.272,3.063,1.79,4.653l0.995,3.023   c0.199,0.676,0.438,1.392,0.438,2.108c0,2.903-2.506,3.978-4.932,4.256l-5.767,0.716c-2.228,0.278-4.495,0.398-6.762,0.438   l0.04,3.54c0,0.755,0,2.028-1.114,2.028c-1.034,0-1.313-0.875-1.352-1.79l-0.08-3.38c-1.074,0-4.295,0.119-4.295-1.551   c0-0.835,0.915-1.074,1.591-1.074c0.636,0,1.272,0.04,1.949,0.04c0.318,0,0.676,0,0.994,0l-0.079-10.063l-3.341-0.159   c-0.477-1.074-1.034-1.989-1.71-2.904c1.75,0.12,3.5,0.239,5.25,0.358v-8.91c-2.188-0.119-4.216-0.557-6.324-1.153   c-0.676,0.915-2.705,5.051-3.738,5.051c-0.518,0-0.835-0.557-0.835-1.034c0-1.71,1.392-3.699,2.307-5.051   c-1.67-0.716-3.142-1.591-4.574-2.705c-1.392,0.875-6.523,5.21-7.159,5.21c-0.517,0-0.756-0.676-0.756-1.114   c0-1.71,4.693-4.494,6.006-5.369C481.14,7.279,480.265,6.245,479.43,5.21z"/>
	<path fill="#FFFFFF" d="M492.078,2.466h-0.318c-3.341,0-6.364,0.835-9.506,1.989c0.636,0.835,1.313,1.551,2.108,2.188   C486.828,4.972,489.373,3.699,492.078,2.466z"/>
	<path fill="#FFFFFF" d="M495.021,3.739c-3.301,0.955-6.125,2.426-9.068,4.256c1.313,0.835,2.665,1.551,4.057,2.188l1.591-2.188   l2.028-2.466L495.021,3.739z"/>
	<path fill="#FFFFFF" d="M492.277,11.057c1.591,0.517,3.182,0.915,4.852,1.233l0.159-7.08   C496.891,5.012,492.674,10.5,492.277,11.057z"/>
	<path fill="#FFFFFF" d="M499.714,5.37l-0.04,6.841c1.67-0.199,3.261-0.517,4.892-0.915C503.135,9.108,501.663,7.12,499.714,5.37z"/>
	<path fill="#FFFFFF" d="M507.112,10.301c1.114-0.596,2.147-1.272,3.182-1.989c-2.466-1.75-4.813-3.022-7.676-4.017   c1.233,1.551,2.426,3.102,3.54,4.693L507.112,10.301z"/>
	<path d="M452.066,46.893c-0.676,0.398-1.353,0.795-2.029,1.233c0.557-7.119,4.017-18.853,9.864-23.268   c-0.397,1.233-0.676,2.426-0.795,3.699C455.407,34.046,453.219,40.41,452.066,46.893z"/>
	<path d="M529.942,89.212l-0.557-1.551c3.818-3.58,7-7.955,9.068-12.807l2.904-2.426C538.931,78.792,535.63,85.195,529.942,89.212z"/>
	<path d="M528.232,91.241c-8.909,7.08-19.25,11.733-30.745,11.733c-28.081,0-48.325-22.193-48.325-49.717   c0-7.239,12.489-7.278,12.489-14c0-3.42-1.352-6.682-1.352-10.063c0-7.676,7-13.762,14.398-13.762   c7.637,0,18.296,6.682,18.296,15.114c0,5.052-3.938,7.398-3.938,10.381c0,0.955,0.159,1.909,0.159,2.863   c0,1.034-1.512,1.233-1.631,2.347l-0.08,0.596l-0.676,1.034l-0.596,1.074c-0.279,0.438-1.91,1.671-2.426,2.228   c-0.915,0.994-2.228,1.193-3.54,1.193c-0.835,0-1.71-0.04-2.506-0.239l-2.188-0.597c-0.358-0.08-0.716-0.119-1.114-0.119   c-1.193,0-2.585,0.835-2.585,2.147c0,2.148,1.193,4.256,1.114,6.443l-0.12,5.767l0.08,0.398l0.636,1.909l0.478,1.63   c0.716,2.665,4.892,2.466,7.636,3.54l2.347,0.875c0.318,0.119,0.716,0.358,1.074,0.358c1.432,0,3.102-2.705,5.489-2.705   c0.915,0,0.954,1.392,1.75,1.313l2.267-0.199c0.477-0.08,0.835,1.83,0.835,2.227c0,3.341-2.307,7.637-6.045,7.637   c-1.551,0-2.744-1.233-4.176-1.233c-0.597,0-5.012,1.233-6.245,1.432c-1.75,0.279-3.5,0.557-5.25,0.557   c-1.352,0-3.341,0.04-4.494-0.676l-0.915-0.597c-0.159-0.08-0.318-0.199-0.517-0.199c-1.432,0-2.148,3.619-2.148,4.574   c0,4.375,5.568,6.006,8.989,6.006c2.188,0,4.455-0.318,6.483-1.193l6.165-2.705c4.455-1.949,12.011-2.784,13.284-3.46   c1.114-0.597,1.989-1.631,1.989-2.943c0-0.557-0.08-1.114-0.199-1.631l-0.557-2.188l-0.438-2.665l-0.358-2.904   c-0.795-7-9.108-7.358-9.108-12.568c0-2.147,2.267-3.38,2.347-5.409c0.04-0.835,0.159-1.392,0.955-1.79l0.795-0.358   c1.113-0.517,0-2.983,1.432-3.5l0.756-0.279c1.71-0.596,0.159-4.136,2.585-4.455l1.949-0.278l2.347-0.477   c2.863-0.597,2.705-3.46,6.085-4.932l3.54-1.551l1.313-0.835l1.551-1.631c1.392-1.392,3.739-1.67,5.608-1.67   c13.085,0,22.671,10.182,22.671,22.989c0,9.983-8.074,22.671-19.051,22.671c-0.716,0-1.432-0.079-2.148-0.079   c-1.79,0-1.909,1.988-1.909,3.38c0,4.614,5.568,7.796,5.568,7.875c0,0.397-0.08,0.795-0.08,1.193V91.241z"/>
</g>
</svg>